<svg width="29" height="31" viewBox="0 0 29 31" fill="none" xmlns="http://www.w3.org/2000/svg">
<mask id="mask0_67_540" style="mask-type:luminance" maskUnits="userSpaceOnUse" x="0" y="0" width="29" height="31">
<path d="M28.3026 0.36499H0.69751V30.365H28.3026V0.36499Z" fill="white"/>
</mask>
<g mask="url(#mask0_67_540)">
<path d="M16.2161 0.36499V3.64775H16.1266C16.0744 3.64775 16.0222 3.66268 16.0109 3.68506C15.9997 3.70371 15.9139 3.72236 15.8243 3.72236C15.7349 3.72236 15.6491 3.73729 15.6379 3.75967C15.6266 3.77831 15.5483 3.79698 15.47 3.79698C15.3917 3.79698 15.317 3.8119 15.3059 3.83054C15.2947 3.84921 15.2201 3.87159 15.1454 3.88278C14.9552 3.90889 14.7947 3.94619 14.7053 3.9835C14.6642 3.99841 14.5561 4.03199 14.4628 4.05809C14.3696 4.08049 14.2651 4.11779 14.2315 4.13644C14.1942 4.15509 14.1308 4.17001 14.0935 4.17001C14.0525 4.17001 14.0114 4.18494 14.0002 4.19986C13.9891 4.21479 13.8958 4.25209 13.7951 4.28192C13.6906 4.30804 13.6048 4.34534 13.6048 4.36399C13.6048 4.37891 13.5712 4.39384 13.5339 4.39384C13.4929 4.39384 13.4481 4.40876 13.4369 4.43114C13.4258 4.44979 13.3735 4.46845 13.3213 4.46845C13.2728 4.46845 13.2318 4.48338 13.2318 4.50575C13.2318 4.5244 13.2094 4.54306 13.1833 4.54306C13.1124 4.54306 12.8848 4.65124 12.1425 5.03546C12.0119 5.10262 11.9 5.16604 11.8888 5.17723C11.8776 5.18842 11.8254 5.21825 11.7695 5.2481C11.7098 5.27794 11.665 5.31524 11.665 5.3339C11.665 5.34883 11.6389 5.36374 11.6053 5.36374C11.5717 5.36374 11.5158 5.39359 11.4822 5.43089C11.4486 5.46446 11.3778 5.5167 11.3218 5.54653C11.2621 5.57638 11.2174 5.61368 11.2174 5.63233C11.2174 5.64725 11.195 5.66218 11.1689 5.66218C11.1427 5.66218 11.0868 5.69203 11.0458 5.72933C11.0084 5.76662 10.9152 5.83751 10.8443 5.88601C10.7734 5.93822 10.6802 6.01284 10.6354 6.05387C10.5944 6.09491 10.5011 6.16951 10.434 6.22174C10.2176 6.38215 9.42676 7.19165 9.42676 7.25134C9.42676 7.26253 9.37826 7.31848 9.3223 7.37071C9.26635 7.42666 9.17681 7.53112 9.12832 7.60199C9.07982 7.67287 9.02759 7.74002 9.0164 7.75121C8.9791 7.78105 8.75528 8.11679 8.75528 8.14291C8.75528 8.1541 8.7217 8.19886 8.68067 8.24362C8.63963 8.28839 8.60606 8.34808 8.60606 8.37419C8.60606 8.40031 8.59114 8.42269 8.56876 8.42269C8.5501 8.42269 8.53145 8.45626 8.53145 8.49356C8.53145 8.53461 8.51653 8.57191 8.5016 8.57936C8.46058 8.59429 8.1584 9.19861 8.1584 9.26576C8.1584 9.2956 8.14349 9.31798 8.12111 9.31798C8.10245 9.31798 8.08381 9.35156 8.08381 9.39259C8.08381 9.43363 8.06888 9.4672 8.0465 9.4672C8.02784 9.4672 8.0092 9.50077 8.0092 9.54181C8.0092 9.61642 7.99427 9.64999 7.90474 9.82906C7.87862 9.87755 7.85998 9.94843 7.85998 9.98945C7.85998 10.0305 7.84505 10.0641 7.82267 10.0641C7.80401 10.0641 7.78537 10.1126 7.78537 10.176C7.78537 10.2357 7.77044 10.2879 7.74806 10.2879C7.72942 10.2879 7.71076 10.3438 7.71076 10.4147C7.71076 10.4856 7.69583 10.5565 7.67345 10.5677C7.65481 10.5789 7.63615 10.6385 7.63615 10.6982C7.63615 10.7579 7.62122 10.8176 7.59884 10.8288C7.5802 10.84 7.56154 10.9146 7.56154 10.9929C7.56154 11.0713 7.54663 11.1459 7.52797 11.1645C7.50932 11.1869 7.48321 11.2839 7.47202 11.3884C7.46083 11.4891 7.43098 11.7353 7.4086 11.9293C7.32653 12.5522 7.36384 14.5443 7.45336 14.6003C7.47202 14.6114 7.48693 14.7084 7.48693 14.8203C7.48693 14.9322 7.50559 15.033 7.52423 15.0441C7.54663 15.0554 7.56154 15.1487 7.56154 15.2493C7.56154 15.3501 7.5802 15.4433 7.59884 15.4545C7.62122 15.4656 7.63615 15.5328 7.63615 15.6038C7.63615 15.6746 7.65481 15.7418 7.67345 15.7529C7.69583 15.7641 7.71076 15.8238 7.71076 15.8835C7.71076 15.9432 7.72942 16.0029 7.74806 16.014C7.77044 16.0253 7.78537 16.085 7.78537 16.1447C7.78537 16.2044 7.80401 16.2641 7.82267 16.2752C7.84505 16.2864 7.85998 16.3386 7.85998 16.3871C7.85998 16.4357 7.87862 16.4879 7.89728 16.499C7.91966 16.5102 7.93459 16.5624 7.93459 16.6109C7.93459 16.6595 7.95323 16.7117 7.97189 16.7228C7.99427 16.734 8.0092 16.7862 8.0092 16.8384C8.0092 16.887 8.02411 16.928 8.03903 16.928C8.05769 16.928 8.095 17.0138 8.12111 17.1146C8.14721 17.219 8.18452 17.301 8.20318 17.301C8.2181 17.301 8.23301 17.3346 8.23301 17.3757C8.23301 17.4167 8.25167 17.4503 8.27032 17.4503C8.2927 17.4503 8.30762 17.4726 8.30762 17.495C8.30762 17.5547 8.61352 18.174 8.65082 18.1889C8.66948 18.1964 8.68067 18.2337 8.68067 18.2747C8.68067 18.312 8.69558 18.3456 8.71424 18.3456C8.73289 18.3456 8.75528 18.3755 8.76647 18.4127C8.79259 18.4874 8.90449 18.6776 8.96791 18.7448C8.99029 18.7709 9.02387 18.8268 9.03506 18.8678C9.04625 18.9089 9.07609 18.9425 9.09475 18.9425C9.11339 18.9425 9.12832 18.9648 9.12832 18.9909C9.12832 19.017 9.16189 19.0767 9.20293 19.1216C9.24397 19.1663 9.27754 19.2147 9.27754 19.2335C9.27754 19.2521 9.32603 19.3193 9.38945 19.3826C9.51628 19.517 9.52375 19.5393 9.4454 19.5393C9.38198 19.5393 8.23675 18.4089 8.06888 18.1851C8.01292 18.1106 7.92712 18.0062 7.8749 17.9538C7.82641 17.9054 7.78537 17.8494 7.78537 17.8308C7.78537 17.8121 7.73314 17.745 7.67345 17.6816C7.61003 17.6144 7.56154 17.5509 7.56154 17.5361C7.56154 17.5175 7.50932 17.4465 7.44964 17.3757C7.38994 17.3048 7.33772 17.2302 7.33772 17.2152C7.33772 17.2004 7.30414 17.1518 7.26311 17.1071C7.22207 17.0624 7.1885 17.0027 7.1885 16.9766C7.1885 16.9505 7.17358 16.928 7.1512 16.928C7.13255 16.928 7.11389 16.8944 7.11389 16.8534C7.11389 16.8123 7.09897 16.7789 7.08032 16.7789C7.06166 16.7789 7.02809 16.7265 7.00198 16.6668C6.97586 16.6035 6.94229 16.5549 6.92365 16.5549C6.90499 16.5549 6.89006 16.5215 6.89006 16.4804C6.89006 16.4393 6.87515 16.4058 6.85276 16.4058C6.83411 16.4058 6.81545 16.3722 6.81545 16.3311C6.81545 16.2902 6.80054 16.2566 6.77816 16.2566C6.7595 16.2566 6.74086 16.223 6.74086 16.1819C6.74086 16.1409 6.72593 16.1073 6.70355 16.1073C6.68489 16.1073 6.66625 16.0737 6.66625 16.0328C6.66625 15.9917 6.65132 15.9581 6.62894 15.9581C6.61028 15.9581 6.59164 15.9245 6.59164 15.8835C6.59164 15.8424 6.57671 15.8088 6.55433 15.8088C6.53567 15.8088 6.51703 15.7754 6.51703 15.7343C6.51703 15.6933 6.5021 15.6597 6.47972 15.6597C6.46108 15.6597 6.44242 15.6261 6.44242 15.5888C6.44242 15.5478 6.42749 15.503 6.40511 15.4919C6.38647 15.4806 6.36781 15.4284 6.36781 15.3762C6.36781 15.3276 6.35288 15.2867 6.3305 15.2867C6.31186 15.2867 6.2932 15.2456 6.2932 15.1971C6.2932 15.1449 6.27829 15.0927 6.25589 15.0815C6.23725 15.0702 6.21859 15.0255 6.21859 14.9844C6.21859 14.9472 6.20368 14.9136 6.18128 14.9136C6.16264 14.9136 6.14399 14.8652 6.14399 14.8055C6.14399 14.742 6.12907 14.6823 6.10669 14.6711C6.08803 14.66 6.06938 14.6077 6.06938 14.5592C6.06938 14.5107 6.05446 14.4585 6.03208 14.4473C6.01342 14.4361 5.99477 14.3764 5.99477 14.3167C5.99477 14.2571 5.97985 14.1974 5.95747 14.1862C5.93881 14.175 5.92016 14.1078 5.92016 14.037C5.92016 13.9661 5.90524 13.8989 5.88286 13.8877C5.8642 13.8766 5.84555 13.7982 5.84555 13.7199C5.84555 13.6415 5.83063 13.5632 5.80825 13.552C5.7896 13.5408 5.77094 13.4587 5.77094 13.3692C5.77094 13.2797 5.75602 13.1976 5.73737 13.179C5.70007 13.1379 5.68888 13.0148 5.618 12.0598C5.55085 11.116 5.56951 10.5453 5.69633 9.70967C5.71871 9.56419 5.74483 9.37394 5.75602 9.28069C5.76721 9.18742 5.79332 9.0979 5.81198 9.07551C5.83063 9.05686 5.84555 8.98598 5.84555 8.92256C5.84555 8.85541 5.8642 8.78827 5.88286 8.77708C5.9015 8.76589 5.92016 8.69874 5.92016 8.62786C5.92016 8.55698 5.93881 8.48983 5.95747 8.47864C5.97985 8.46745 5.99477 8.39657 5.99477 8.3257C5.99477 8.25482 6.01342 8.19886 6.03208 8.19886C6.05446 8.19886 6.06938 8.14663 6.06938 8.08695C6.06938 8.02354 6.08803 7.97504 6.10669 7.97504C6.12907 7.97504 6.14399 7.92281 6.14399 7.86313C6.14399 7.79971 6.16264 7.75121 6.18128 7.75121C6.20368 7.75121 6.21859 7.71764 6.21859 7.6766C6.21859 7.63556 6.23725 7.56842 6.25589 7.52738C6.27829 7.48636 6.31186 7.4192 6.3305 7.37816C6.35288 7.33714 6.36781 7.26999 6.36781 7.22896C6.36781 7.18792 6.38647 7.15435 6.40511 7.15435C6.42749 7.15435 6.44242 7.12076 6.44242 7.07974C6.44242 7.0387 6.46108 7.00513 6.47972 7.00513C6.5021 7.00513 6.51703 6.97901 6.51703 6.94918C6.51703 6.91933 6.53195 6.86338 6.5506 6.82608C6.56926 6.79249 6.65132 6.62836 6.72967 6.46421C6.90872 6.1061 7.05047 5.83751 7.07659 5.8114C7.11389 5.77409 7.22954 5.56892 7.25192 5.50177C7.26311 5.4682 7.28549 5.43835 7.30414 5.43835C7.3228 5.43835 7.33772 5.41597 7.33772 5.38985C7.33772 5.36374 7.37129 5.30405 7.41233 5.25929C7.45336 5.21453 7.48693 5.16604 7.48693 5.15111C7.48693 5.13619 7.53916 5.06158 7.59884 4.99071C7.65853 4.91983 7.71076 4.84896 7.71076 4.8303C7.71076 4.81537 7.75925 4.75197 7.82267 4.68481C7.88609 4.62139 7.93459 4.55425 7.93459 4.53559C7.93459 4.51321 7.98308 4.45353 8.03903 4.4013C8.095 4.34535 8.18452 4.24088 8.23301 4.17001C8.3524 4.00214 9.32975 3.02477 9.50135 2.90167C9.57224 2.84944 9.69535 2.745 9.77741 2.67039C9.85574 2.59206 9.94154 2.52864 9.96394 2.52864C9.98632 2.52864 10.0311 2.49505 10.0609 2.45403C10.0908 2.41299 10.1355 2.37942 10.1579 2.37942C10.1803 2.37942 10.2512 2.32719 10.3146 2.2675C10.3817 2.20408 10.4489 2.15559 10.4638 2.15559C10.4825 2.15559 10.5272 2.12575 10.5683 2.08845C10.6615 2.00638 10.8443 1.89446 10.9301 1.86835C10.9637 1.85716 10.9935 1.83478 10.9935 1.81612C10.9935 1.79748 11.0271 1.78255 11.0681 1.78255C11.1092 1.78255 11.1427 1.77136 11.1427 1.7527C11.1427 1.73779 11.18 1.70794 11.2285 1.68556C11.2733 1.66318 11.5158 1.54008 11.7657 1.41324C12.0119 1.29013 12.2432 1.18569 12.2768 1.18569C12.3104 1.18569 12.3365 1.17076 12.3365 1.15584C12.3365 1.13719 12.4223 1.09988 12.523 1.07377C12.6274 1.04766 12.7095 1.01035 12.7095 0.991701C12.7095 0.976779 12.7617 0.961857 12.8214 0.961857C12.8848 0.961857 12.9333 0.943204 12.9333 0.924553C12.9333 0.90217 12.9856 0.887248 13.0453 0.887248C13.1087 0.887248 13.1572 0.868596 13.1572 0.849945C13.1572 0.827562 13.2057 0.81264 13.2653 0.81264C13.3288 0.81264 13.3885 0.793989 13.3996 0.775336C13.4108 0.752953 13.4705 0.738031 13.5302 0.738031C13.5899 0.738031 13.6459 0.723111 13.657 0.704458C13.6682 0.685806 13.7317 0.663423 13.7988 0.652233C13.8659 0.637311 14.0152 0.611197 14.1271 0.588816C14.5039 0.514207 14.7761 0.473172 15.1045 0.44706C15.2834 0.432138 15.4402 0.406024 15.455 0.391104C15.47 0.376182 15.6491 0.36499 15.8506 0.36499H16.2161Z" fill="white"/>
<path d="M15.5482 21.8634C15.4774 21.897 15.3916 21.9269 15.3543 21.9269C15.3169 21.9269 15.276 21.9419 15.2647 21.9642C15.2535 21.9828 15.2013 22.0014 15.1528 22.0014C15.1044 22.0014 15.052 22.0164 15.0409 22.0388C15.0297 22.0574 14.97 22.0761 14.9103 22.0761C14.8506 22.0761 14.791 22.0947 14.7798 22.1133C14.7685 22.1358 14.7015 22.1507 14.6305 22.1507C14.5597 22.1507 14.4962 22.1657 14.485 22.1843C14.4738 22.2029 14.3992 22.2254 14.3246 22.2365C14.2463 22.2477 14.0896 22.2776 13.9777 22.2999C12.7914 22.535 11.344 22.5648 10.1727 22.3745C10.0384 22.3521 9.85186 22.326 9.75487 22.3148C9.65415 22.3037 9.57582 22.2776 9.57582 22.2588C9.57582 22.2402 9.50866 22.2254 9.4266 22.2254C9.34453 22.2254 9.27738 22.2066 9.27738 22.188C9.27738 22.1657 9.22143 22.1507 9.15054 22.1507C9.07966 22.1507 9.00879 22.1358 8.9976 22.1133C8.98641 22.0947 8.92672 22.0761 8.8633 22.0761C8.80362 22.0761 8.75512 22.0574 8.75512 22.0388C8.75512 22.0164 8.70663 22.0014 8.64321 22.0014C8.58352 22.0014 8.53129 21.9828 8.53129 21.9642C8.53129 21.9419 8.4828 21.9269 8.42311 21.9269C8.35969 21.9269 8.30001 21.9083 8.28882 21.8895C8.27763 21.8672 8.2254 21.8523 8.17317 21.8523C8.12467 21.8523 8.08365 21.8373 8.08365 21.8225C8.08365 21.8037 8.00158 21.7665 7.89712 21.7404C7.7964 21.7142 7.7106 21.677 7.7106 21.6582C7.7106 21.6434 7.67703 21.6284 7.63599 21.6284C7.59496 21.6284 7.56139 21.6098 7.56139 21.5912C7.56139 21.5688 7.539 21.5538 7.51662 21.5538C7.46812 21.5538 6.70339 21.1845 6.66609 21.1434C6.63252 21.11 6.42361 20.9906 6.36019 20.9682C6.32289 20.957 6.29305 20.9346 6.29305 20.9159C6.29305 20.8973 6.25947 20.8824 6.21844 20.8824C6.1774 20.8824 6.14383 20.8674 6.14383 20.8526C6.14383 20.8338 6.09906 20.7966 6.04311 20.7668C5.98342 20.7369 5.91255 20.6846 5.87896 20.6511C5.84539 20.6138 5.80063 20.5839 5.78197 20.5839C5.76333 20.5839 5.71483 20.5541 5.67379 20.5167C5.63649 20.4795 5.54323 20.4123 5.47236 20.3601C5.40148 20.3117 5.33433 20.2593 5.32314 20.2482C5.31195 20.237 5.26345 20.196 5.21496 20.1624C4.8904 19.9422 3.53254 18.5844 3.53254 18.4838C3.53254 18.465 3.50269 18.4203 3.46539 18.3867C3.42808 18.3531 3.35721 18.2673 3.30871 18.1965C3.26022 18.1256 3.1968 18.0435 3.17068 18.0174C3.14457 17.9913 3.09607 17.9204 3.05877 17.8607C3.0252 17.7974 2.98044 17.7488 2.96551 17.7488C2.95059 17.7488 2.93568 17.7264 2.93568 17.7003C2.93568 17.6742 2.90583 17.6183 2.87226 17.5772C2.83495 17.5362 2.78646 17.469 2.76408 17.4279C2.74168 17.3907 2.70066 17.316 2.67081 17.2638C2.64097 17.2116 2.61112 17.1632 2.59993 17.1519C2.56263 17.1146 2.44699 16.9095 2.4246 16.8423C2.41341 16.8087 2.39103 16.7789 2.37238 16.7789C2.35372 16.7789 2.3388 16.7453 2.3388 16.7043C2.3388 16.6632 2.32389 16.6296 2.30151 16.6296C2.28285 16.6296 2.2642 16.5962 2.2642 16.5551C2.2642 16.514 2.24928 16.4805 2.2269 16.4805C2.20824 16.4805 2.18959 16.4469 2.18959 16.4058C2.18959 16.3649 2.17467 16.3313 2.15229 16.3313C2.13363 16.3313 2.11498 16.2977 2.11498 16.2566C2.11498 16.2156 2.10006 16.182 2.07768 16.182C2.05902 16.182 2.04037 16.1484 2.04037 16.1075C2.04037 16.0664 2.02545 16.0328 2.00307 16.0328C1.98442 16.0328 1.96576 15.9918 1.96576 15.9432C1.96576 15.891 1.95084 15.8388 1.92846 15.8276C1.90981 15.8165 1.89115 15.7716 1.89115 15.7307C1.89115 15.6933 1.87623 15.6597 1.85385 15.6597C1.8352 15.6597 1.81654 15.6263 1.81654 15.5889C1.81654 15.5478 1.80162 15.5031 1.77924 15.4919C1.76059 15.4808 1.74193 15.4284 1.74193 15.3762C1.74193 15.3278 1.72702 15.2867 1.70463 15.2867C1.68598 15.2867 1.66734 15.2345 1.66734 15.1748C1.66734 15.1115 1.65241 15.0629 1.63003 15.0629C1.61137 15.0629 1.59273 15.0219 1.59273 14.9733C1.59273 14.9211 1.5778 14.8689 1.55542 14.8577C1.53676 14.8466 1.51812 14.7869 1.51812 14.7234C1.51812 14.6637 1.50319 14.6153 1.48453 14.6153C1.46589 14.6153 1.44351 14.5593 1.43232 14.4922C1.39875 14.2907 1.36516 14.1527 1.33159 14.0744C1.31295 14.0333 1.29055 13.9401 1.27564 13.8692C1.26445 13.7983 1.23834 13.6528 1.21594 13.5521C1.03689 12.6755 0.973471 11.3922 1.063 10.5305C1.08912 10.3029 1.11895 10.0194 1.13016 9.89631C1.14135 9.7732 1.16745 9.65755 1.18611 9.63517C1.20475 9.61653 1.21968 9.51954 1.21968 9.42255C1.21968 9.32556 1.23834 9.24348 1.25698 9.24348C1.27936 9.24348 1.29429 9.17634 1.29429 9.09427C1.29429 9.01219 1.31295 8.94505 1.33159 8.94505C1.35397 8.94505 1.3689 8.88909 1.3689 8.81821C1.3689 8.74734 1.38754 8.67646 1.4062 8.66527C1.42858 8.65408 1.44351 8.5944 1.44351 8.5347C1.44351 8.47501 1.46215 8.41533 1.48081 8.40414C1.50319 8.39295 1.51812 8.34072 1.51812 8.29222C1.51812 8.24373 1.53676 8.19151 1.55542 8.18031C1.5778 8.16912 1.59273 8.1169 1.59273 8.06467C1.59273 8.01618 1.61137 7.97514 1.63003 7.97514C1.65241 7.97514 1.66734 7.93411 1.66734 7.88562C1.66734 7.83339 1.68598 7.78116 1.70463 7.76997C1.72702 7.75878 1.74193 7.71402 1.74193 7.67298C1.74193 7.63567 1.76059 7.6021 1.77924 7.6021C1.80162 7.6021 1.81654 7.57599 1.81654 7.54614C1.81654 7.51257 1.85013 7.41558 1.89115 7.33351C1.93219 7.24771 1.96576 7.15446 1.96576 7.12834C1.96576 7.10223 1.98442 7.07985 2.00307 7.07985C2.02545 7.07985 2.04037 7.04626 2.04037 7.00524C2.04037 6.9642 2.05902 6.93063 2.07768 6.93063C2.10006 6.93063 2.11498 6.89706 2.11498 6.85602C2.11498 6.81498 2.13363 6.78141 2.15229 6.78141C2.17467 6.78141 2.18959 6.74784 2.18959 6.7068C2.18959 6.66577 2.20078 6.63219 2.21943 6.63219C2.23435 6.63219 2.26792 6.57997 2.29404 6.52027C2.35372 6.38971 2.34253 6.39345 2.46937 6.45313C2.5216 6.47551 2.56263 6.50908 2.56263 6.52774C2.56263 6.54267 2.5962 6.55758 2.63724 6.55758C2.67828 6.55758 2.71185 6.5725 2.71185 6.59116C2.71185 6.60981 2.74168 6.63219 2.77899 6.64338C2.84241 6.66577 3.04758 6.78141 3.08488 6.81871C3.10354 6.83737 3.36466 6.97912 3.52135 7.05745C3.56985 7.07985 3.60715 7.10968 3.60715 7.12461C3.60715 7.14325 3.63325 7.15446 3.6631 7.15446C3.69667 7.15446 3.75636 7.18803 3.80113 7.22905C3.84589 7.27009 3.90558 7.30366 3.93169 7.30366C3.95781 7.30366 3.98019 7.31859 3.98019 7.34097C3.98019 7.35963 4.01376 7.37827 4.0548 7.37827C4.09584 7.37827 4.12941 7.3932 4.12941 7.41184C4.12941 7.4305 4.15924 7.45288 4.19655 7.46407C4.25997 7.48645 4.46514 7.6021 4.50244 7.63941C4.53975 7.67671 4.74492 7.79235 4.81207 7.81473C4.84564 7.82593 4.87549 7.84831 4.87549 7.86696C4.87549 7.88562 4.90906 7.90053 4.9501 7.90053C4.99113 7.90053 5.0247 7.91545 5.0247 7.93783C5.0247 7.95649 5.05828 7.97514 5.09931 7.97514C5.15899 7.97514 5.17392 8.00125 5.17392 8.09824C5.17392 8.1654 5.15899 8.23627 5.14408 8.25492C5.12542 8.27731 5.07319 8.41906 5.02843 8.572C4.97994 8.72496 4.92771 8.88163 4.90906 8.9152C4.8904 8.95251 4.87549 9.01593 4.87549 9.05697C4.87549 9.09799 4.86057 9.16141 4.84191 9.19872C4.78596 9.31063 4.72627 9.52699 4.72627 9.62026C4.72627 9.67248 4.71135 9.72844 4.6927 9.74709C4.67404 9.76947 4.65166 9.85155 4.64047 9.93361C4.62555 10.0157 4.59943 10.1761 4.57705 10.288C4.3495 11.422 4.31592 12.9441 4.49872 14.0371C4.5211 14.1602 4.54722 14.328 4.55841 14.4101C4.57332 14.4922 4.59571 14.5929 4.61436 14.6339C4.63302 14.675 4.6554 14.7683 4.67031 14.8391C4.68151 14.91 4.70016 15.0257 4.71508 15.089C4.72627 15.1562 4.74865 15.2121 4.76731 15.2121C4.78596 15.2121 4.80088 15.2495 4.80088 15.2942C4.80088 15.3875 4.88295 15.6411 4.92399 15.6822C4.9389 15.6971 4.9501 15.7493 4.9501 15.7979C4.9501 15.8426 4.96875 15.8837 4.98739 15.8837C5.00979 15.8837 5.0247 15.9171 5.0247 15.9545C5.0247 15.9956 5.04336 16.0403 5.062 16.0515C5.0844 16.0626 5.09931 16.1148 5.09931 16.1672C5.09931 16.2156 5.11797 16.2566 5.13661 16.2566C5.15899 16.2566 5.17392 16.2902 5.17392 16.3313C5.17392 16.3722 5.19258 16.4058 5.21122 16.4058C5.2336 16.4058 5.24853 16.4394 5.24853 16.4805C5.24853 16.5215 5.26719 16.5551 5.28583 16.5551C5.30821 16.5551 5.32314 16.5887 5.32314 16.6296C5.32314 16.6707 5.34178 16.7043 5.36044 16.7043C5.38282 16.7043 5.39775 16.7379 5.39775 16.7789C5.39775 16.82 5.41639 16.8536 5.43505 16.8536C5.45743 16.8536 5.47236 16.887 5.47236 16.9281C5.47236 16.9692 5.491 17.0027 5.50966 17.0027C5.53204 17.0027 5.54697 17.0288 5.54697 17.0586C5.54697 17.0922 5.58054 17.1519 5.62158 17.1968C5.6626 17.2415 5.69617 17.3012 5.69617 17.3273C5.69617 17.3534 5.71483 17.3757 5.73348 17.3757C5.75587 17.3757 5.77078 17.3982 5.77078 17.4243C5.77078 17.4504 5.80437 17.5101 5.84539 17.5548C5.88643 17.5995 5.92 17.6481 5.92 17.663C5.92 17.678 5.97223 17.7525 6.03192 17.8235C6.0916 17.8943 6.14383 17.969 6.14383 17.9838C6.14383 18.0024 6.18859 18.0621 6.24828 18.1143C6.30424 18.1703 6.3975 18.2786 6.45718 18.3569C6.60267 18.5508 7.39725 19.3491 7.56139 19.4648C7.63227 19.5132 7.71807 19.5842 7.75164 19.6215C7.78521 19.6587 7.82625 19.6886 7.84863 19.6886C7.86729 19.6886 7.95681 19.7558 8.04634 19.8378C8.13588 19.9199 8.2254 19.9871 8.24406 19.9871C8.25897 19.9871 8.30746 20.0207 8.35224 20.0616C8.397 20.1027 8.45668 20.1363 8.4828 20.1363C8.50891 20.1363 8.53129 20.1512 8.53129 20.1662C8.53129 20.181 8.61336 20.237 8.71782 20.2892C8.81854 20.3378 8.90434 20.39 8.90434 20.4048C8.90434 20.4236 8.93791 20.4347 8.97894 20.4347C9.01998 20.4347 9.05355 20.4497 9.05355 20.4645C9.05355 20.4833 9.26619 20.6025 9.53104 20.7294C9.79218 20.8563 10.0347 20.9793 10.0682 20.9981C10.1055 21.0167 10.1615 21.0315 10.1913 21.0315C10.2212 21.0315 10.2473 21.0465 10.2473 21.0689C10.2473 21.0875 10.2809 21.1062 10.3219 21.1062C10.3629 21.1062 10.4338 21.1248 10.4823 21.1509C10.6614 21.2405 10.6949 21.2555 10.7658 21.2555C10.8069 21.2555 10.8516 21.2741 10.8628 21.2927C10.874 21.3114 10.9188 21.33 10.9598 21.33C10.9971 21.33 11.0605 21.3449 11.0978 21.3636C11.1314 21.3822 11.2359 21.4158 11.3291 21.4419C11.4224 21.468 11.5268 21.5016 11.5604 21.5202C11.5977 21.539 11.6872 21.5538 11.7581 21.5538C11.829 21.5538 11.8887 21.5688 11.8887 21.5874C11.8887 21.606 11.9595 21.6284 12.0491 21.6434C12.1349 21.6546 12.3065 21.6807 12.4296 21.7031C12.922 21.7926 13.2913 21.8225 14.2388 21.8373C14.9328 21.8523 15.2685 21.8448 15.3618 21.815C15.4326 21.7889 15.5334 21.7776 15.5856 21.7851C15.6714 21.7964 15.6714 21.8 15.5482 21.8634Z" fill="white"/>
<path d="M20.6776 17.7378C20.6628 17.8161 20.644 17.9428 20.6329 18.0213C20.6179 18.0958 20.5956 18.1704 20.577 18.1816C20.5582 18.1929 20.5434 18.2674 20.5434 18.3457C20.5434 18.4242 20.5283 18.5025 20.506 18.5136C20.4874 18.5248 20.4687 18.5845 20.4687 18.6442C20.4687 18.7039 20.4538 18.7636 20.4314 18.7747C20.4127 18.786 20.3941 18.8457 20.3941 18.9054C20.3941 18.9651 20.3792 19.0248 20.3568 19.0359C20.3382 19.0471 20.3195 19.0993 20.3195 19.1478C20.3195 19.1964 20.3046 19.2486 20.2822 19.2597C20.2636 19.2709 20.2449 19.3231 20.2449 19.3716C20.2449 19.4202 20.23 19.4724 20.2077 19.4836C20.1889 19.4947 20.1703 19.5469 20.1703 19.5991C20.1703 19.6477 20.1553 19.6887 20.1329 19.6887C20.1143 19.6887 20.0956 19.7223 20.0956 19.7596C20.0956 19.8006 20.0807 19.8454 20.0584 19.8565C20.0396 19.8678 20.021 19.92 20.021 19.9722C20.021 20.0208 20.0062 20.0617 19.9837 20.0617C19.9651 20.0617 19.9465 20.0842 19.9465 20.1066C19.9465 20.17 19.4914 21.084 19.4541 21.0988C19.4391 21.1063 19.4242 21.1435 19.4242 21.1846C19.4242 21.222 19.4092 21.2556 19.3869 21.2556C19.3682 21.2556 19.3496 21.2779 19.3496 21.304C19.3496 21.3301 19.316 21.3898 19.275 21.4345C19.234 21.4794 19.2004 21.5316 19.2004 21.5539C19.2004 21.5763 19.1668 21.6285 19.1257 21.6733C19.0848 21.718 19.0511 21.7777 19.0511 21.8038C19.0511 21.8299 19.0363 21.8524 19.0213 21.8524C19.0065 21.8524 18.9654 21.8971 18.9318 21.9531C18.8981 22.0128 18.8273 22.1061 18.7752 22.1695C18.7229 22.2291 18.6781 22.2963 18.6781 22.3149C18.6781 22.3336 18.6482 22.3746 18.6109 22.4082C18.5737 22.4418 18.5027 22.5238 18.458 22.5948C18.3722 22.714 17.6709 23.4639 17.4919 23.6206C17.4433 23.6653 17.2942 23.8033 17.1561 23.9302C17.0218 24.0607 16.8949 24.1653 16.8801 24.1653C16.8615 24.1653 16.798 24.2137 16.7308 24.2772C16.6673 24.3369 16.6003 24.3891 16.5779 24.3891C16.5592 24.3891 16.5145 24.4189 16.4809 24.4561C16.4473 24.4897 16.3765 24.5419 16.3206 24.5718C16.2609 24.6016 16.216 24.639 16.216 24.6576C16.216 24.6726 16.1937 24.6874 16.1676 24.6874C16.1414 24.6874 16.0855 24.7173 16.0444 24.7509C16.0072 24.7882 15.9288 24.8404 15.8728 24.8703C15.8131 24.9001 15.7684 24.9375 15.7684 24.9561C15.7684 24.9709 15.7348 24.9859 15.6939 24.9859C15.6528 24.9859 15.6192 25.0008 15.6192 25.0195C15.6192 25.0381 15.5893 25.0605 15.5557 25.0717C15.4662 25.1016 15.2685 25.221 15.2536 25.2546C15.2461 25.2732 15.2089 25.2843 15.1678 25.2843C15.1305 25.2843 15.0968 25.2993 15.0968 25.3216C15.0968 25.3404 15.0634 25.359 15.0223 25.359C14.9812 25.359 14.9478 25.3738 14.9478 25.3963C14.9478 25.4149 14.9142 25.4335 14.8731 25.4335C14.8321 25.4335 14.7985 25.4485 14.7985 25.4709C14.7985 25.4895 14.7762 25.5082 14.7501 25.5082C14.7238 25.5082 14.6306 25.5417 14.5448 25.5828C14.4627 25.6239 14.3657 25.6573 14.3322 25.6573C14.3023 25.6573 14.2762 25.6723 14.2762 25.6947C14.2762 25.7133 14.2501 25.732 14.2203 25.732C14.1904 25.732 14.1345 25.7469 14.0972 25.7656C14.0636 25.7842 13.9852 25.8178 13.9218 25.8439C13.8621 25.87 13.7801 25.9036 13.7465 25.9222C13.7092 25.941 13.6532 25.9558 13.6234 25.9558C13.5935 25.9558 13.5376 25.9707 13.5003 25.9894C13.4667 26.008 13.3623 26.0416 13.269 26.0677C13.1758 26.0938 13.0713 26.1274 13.0377 26.146C13.0004 26.1648 12.9221 26.1796 12.8624 26.1796C12.799 26.1796 12.743 26.1946 12.7318 26.2132C12.7206 26.2318 12.646 26.2543 12.5714 26.2692C12.4931 26.2804 12.3625 26.299 12.2804 26.3103C12.1984 26.3251 12.0977 26.3475 12.0566 26.3662C11.844 26.4594 10.9524 26.5266 9.94894 26.5266C9.00887 26.5228 8.60225 26.4967 8.10238 26.4034C7.97928 26.3811 7.79648 26.3512 7.69204 26.3437C7.59131 26.3326 7.49059 26.3065 7.46821 26.2878C7.44956 26.2692 7.37869 26.2543 7.31153 26.2543C7.24439 26.2543 7.18843 26.2356 7.18843 26.217C7.18843 26.1946 7.12129 26.1796 7.03921 26.1796C6.95715 26.1796 6.89001 26.161 6.89001 26.1423C6.89001 26.1199 6.84151 26.1051 6.78183 26.1051C6.7184 26.1051 6.65872 26.0863 6.64751 26.0677C6.63632 26.0454 6.58411 26.0304 6.53561 26.0304C6.48712 26.0304 6.43489 26.0118 6.4237 25.9932C6.41251 25.9707 6.36028 25.9558 6.31178 25.9558C6.26329 25.9558 6.21106 25.9372 6.19987 25.9185C6.18868 25.8961 6.13645 25.8813 6.08423 25.8813C6.03574 25.8813 5.9947 25.8625 5.9947 25.8439C5.9947 25.8216 5.95366 25.8066 5.90516 25.8066C5.85295 25.8066 5.80072 25.788 5.78953 25.7694C5.77834 25.7469 5.7373 25.732 5.70373 25.732C5.67016 25.732 5.53958 25.6798 5.41648 25.6201C5.29337 25.5567 5.174 25.5082 5.14789 25.5082C5.12179 25.5082 5.09939 25.4895 5.09939 25.4709C5.09939 25.4485 5.06582 25.4335 5.02852 25.4335C4.98748 25.4335 4.95019 25.4224 4.94272 25.4037C4.93153 25.3813 4.58461 25.1874 4.36451 25.083C4.31602 25.0605 4.27871 25.0306 4.27871 25.012C4.27871 24.9972 4.25632 24.9859 4.23022 24.9859C4.2041 24.9859 4.14814 24.9561 4.10711 24.9187C4.03622 24.859 3.99146 24.8329 3.78629 24.7135C3.7378 24.6912 3.69304 24.6613 3.68183 24.6502C3.67064 24.639 3.6035 24.5868 3.53263 24.5383C3.46175 24.4897 3.3946 24.4375 3.38341 24.4264C3.37222 24.4152 3.30506 24.363 3.23419 24.3144C3.16331 24.2659 3.07751 24.1987 3.04766 24.1653C3.01783 24.1354 2.92829 24.0607 2.84996 24.001C2.6597 23.8593 1.85767 23.061 1.74202 22.8969C1.6898 22.8261 1.58534 22.7029 1.51073 22.6209C1.4324 22.5424 1.36898 22.4566 1.36898 22.4343C1.36898 22.4119 1.33541 22.3672 1.29437 22.3374C1.25333 22.3075 1.21976 22.2664 1.21976 22.2441C1.21976 22.2255 1.16753 22.147 1.10785 22.0762C1.04816 22.0053 0.995942 21.9232 0.995942 21.8971C0.995942 21.8748 0.981022 21.8524 0.958639 21.8524C0.939986 21.8524 0.921334 21.8299 0.921334 21.8038C0.921334 21.7777 0.887761 21.718 0.846727 21.6733C0.805691 21.6285 0.772118 21.5689 0.772118 21.5353C0.772118 21.5055 0.757196 21.4794 0.734813 21.4794C0.716162 21.4794 0.69751 21.4458 0.69751 21.4047C0.69751 21.3562 0.723622 21.3301 0.772118 21.3301C0.813152 21.3301 0.846727 21.3151 0.846727 21.2965C0.846727 21.2779 0.876569 21.2556 0.913874 21.2443C0.999673 21.2145 1.19738 21.0951 1.21231 21.0577C1.21976 21.0429 1.25707 21.0316 1.29811 21.0316C1.33541 21.0316 1.36898 21.0168 1.36898 20.9982C1.36898 20.9794 1.39883 20.9571 1.43612 20.9458C1.52192 20.916 1.71964 20.7967 1.73456 20.7594C1.74202 20.7444 1.77932 20.7333 1.82036 20.7333C1.85767 20.7333 1.89124 20.7183 1.89124 20.7034C1.89124 20.6884 1.9733 20.6325 2.07776 20.5803C2.17849 20.5318 2.26429 20.4796 2.26429 20.4609C2.26429 20.446 2.29786 20.4348 2.3389 20.4348C2.37992 20.4348 2.41349 20.4199 2.41349 20.4012C2.41349 20.3826 2.44334 20.3602 2.48065 20.349C2.56645 20.3191 2.76416 20.1997 2.77907 20.1625C2.78654 20.1475 2.81638 20.1364 2.84623 20.1364C2.87606 20.1364 2.93576 20.1028 2.98052 20.0617C3.02528 20.0208 3.08497 19.9872 3.11108 19.9872C3.1372 19.9872 3.15958 19.9686 3.15958 19.9498C3.15958 19.9275 3.19316 19.9126 3.23419 19.9126C3.27523 19.9126 3.3088 19.9014 3.3088 19.8828C3.3088 19.8678 3.35356 19.8379 3.40579 19.8118C3.49532 19.7707 3.51397 19.7782 3.67811 19.9498C3.77137 20.0469 3.92432 20.2185 4.01758 20.3266C4.26379 20.6139 4.72636 21.0727 4.88677 21.1959C4.9651 21.2518 5.08448 21.3525 5.14789 21.4197C5.21504 21.4831 5.32696 21.5763 5.39783 21.6285C5.46871 21.6771 5.5657 21.7554 5.61046 21.8038C5.65523 21.8487 5.74475 21.9157 5.80817 21.9493C5.86786 21.9867 5.92009 22.0314 5.92009 22.0464C5.92009 22.0612 5.94247 22.0762 5.96858 22.0762C5.99096 22.0762 6.07304 22.1284 6.14392 22.1881C6.21479 22.2478 6.29686 22.3 6.32297 22.3C6.34535 22.3 6.36773 22.3149 6.36773 22.3336C6.36773 22.3522 6.40132 22.3821 6.44234 22.3933C6.48338 22.4044 6.53933 22.438 6.56545 22.4604C6.6326 22.5238 6.82285 22.6357 6.9012 22.6618C6.93477 22.6731 6.96461 22.6954 6.96461 22.714C6.96461 22.7328 6.99819 22.7476 7.03549 22.7476C7.07652 22.7476 7.11382 22.7589 7.12129 22.7737C7.1362 22.8148 7.44583 22.9714 7.50925 22.9714C7.53908 22.9714 7.56148 22.9864 7.56148 23.0088C7.56148 23.0274 7.59505 23.0461 7.63609 23.0461C7.67711 23.0461 7.71069 23.061 7.71069 23.0835C7.71069 23.1021 7.73308 23.1207 7.75918 23.1207C7.78903 23.1207 7.8599 23.143 7.91959 23.1729C8.12104 23.2699 8.2889 23.3371 8.43812 23.3856C8.52019 23.4117 8.60225 23.449 8.62091 23.4639C8.64329 23.4789 8.69553 23.4937 8.74028 23.4937C8.78878 23.4937 8.83727 23.5087 8.84846 23.5311C8.85965 23.5497 8.90443 23.5684 8.94545 23.5684C8.98276 23.5684 9.04618 23.5833 9.08348 23.6019C9.20286 23.6616 9.41176 23.7175 9.52367 23.7175C9.58709 23.7175 9.6505 23.7325 9.6729 23.7511C9.69154 23.7699 9.78108 23.796 9.87433 23.8071C9.96759 23.8183 10.1616 23.8482 10.3033 23.8705C10.6279 23.9302 12.3961 23.9302 12.7654 23.8743C13.075 23.8258 13.3361 23.7735 13.5674 23.7175C13.6607 23.6952 13.7913 23.6653 13.8584 23.6542C13.9256 23.643 13.989 23.6206 14.0002 23.6019C14.0114 23.5833 14.0599 23.5684 14.1084 23.5684C14.1568 23.5684 14.2091 23.5497 14.2203 23.5311C14.2315 23.5087 14.2911 23.4937 14.3508 23.4937C14.4105 23.4937 14.4702 23.4751 14.4814 23.4564C14.4926 23.434 14.5374 23.4192 14.5785 23.4192C14.6157 23.4192 14.6493 23.4004 14.6493 23.3818C14.6493 23.3595 14.7015 23.3445 14.7612 23.3445C14.8246 23.3445 14.8731 23.3259 14.8731 23.3073C14.8731 23.2848 14.9067 23.2699 14.9478 23.2699C14.9887 23.2699 15.0782 23.2363 15.1528 23.1954C15.2275 23.1543 15.3096 23.1207 15.3394 23.1207C15.3692 23.1207 15.3953 23.1021 15.3953 23.0835C15.3953 23.061 15.4289 23.0461 15.4699 23.0461C15.511 23.0461 15.5446 23.0274 15.5446 23.0088C15.5446 22.9864 15.5782 22.9714 15.6192 22.9714C15.6603 22.9714 15.6939 22.9528 15.6939 22.9342C15.6939 22.9119 15.7273 22.8969 15.7684 22.8969C15.8094 22.8969 15.8429 22.8783 15.8429 22.8595C15.8429 22.8372 15.8765 22.8223 15.9177 22.8223C15.9586 22.8223 15.9922 22.8073 15.9922 22.7925C15.9922 22.7737 16.078 22.7215 16.1788 22.6731C16.2832 22.6246 16.3652 22.5723 16.3652 22.5537C16.3652 22.5388 16.3988 22.5238 16.4398 22.5238C16.4809 22.5238 16.5145 22.509 16.5145 22.494C16.5145 22.4754 16.5592 22.438 16.6189 22.4082C16.6748 22.3783 16.7532 22.3261 16.7905 22.2888C16.8316 22.2553 16.8838 22.2255 16.9062 22.2255C16.9285 22.2255 16.9696 22.1919 16.9995 22.1508C17.0293 22.1098 17.0703 22.0762 17.0928 22.0762C17.1151 22.0762 17.1673 22.0464 17.2084 22.009C17.2456 21.9717 17.3389 21.9009 17.4097 21.8524C17.4806 21.8038 17.6038 21.6994 17.6784 21.6211C17.7529 21.5427 17.8314 21.4794 17.85 21.4794C17.8984 21.4794 18.6222 20.7594 18.8274 20.5095C18.9207 20.3976 19.0399 20.2594 19.0958 20.2035C19.1556 20.1513 19.2004 20.0916 19.2004 20.0692C19.2004 20.0506 19.2526 19.9834 19.3123 19.92C19.3758 19.8529 19.4242 19.7895 19.4242 19.7745C19.4242 19.7559 19.4764 19.6849 19.5361 19.6141C19.5958 19.5432 19.648 19.4686 19.648 19.4538C19.648 19.4388 19.6816 19.3903 19.7227 19.3455C19.7637 19.3008 19.7972 19.2411 19.7972 19.215C19.7972 19.1889 19.8159 19.1665 19.8346 19.1665C19.857 19.1665 19.8718 19.144 19.8718 19.1179C19.8718 19.0918 19.9054 19.0321 19.9465 18.9874C19.9874 18.9426 20.021 18.883 20.021 18.8532C20.021 18.8233 20.0323 18.7935 20.0509 18.786C20.077 18.7747 20.1778 18.5958 20.3643 18.2152C20.424 18.0921 20.4874 17.9616 20.5098 17.928C20.5284 17.8906 20.5434 17.8347 20.5434 17.8048C20.5434 17.775 20.562 17.7489 20.5806 17.7489C20.6031 17.7489 20.6179 17.7153 20.6179 17.6743C20.6179 17.6332 20.6367 17.5996 20.659 17.5996C20.6851 17.5996 20.6926 17.6482 20.6776 17.7378Z" fill="white"/>
<path d="M23.3859 20.5649C23.3188 21.102 23.2404 21.5534 23.1546 21.8891C23.1322 21.9824 23.1024 22.113 23.0911 22.1763C23.08 22.2435 23.0577 22.2995 23.0389 22.2995C23.0203 22.2995 23.0053 22.3368 23.0053 22.3815C23.0053 22.4673 22.9458 22.6838 22.8898 22.7919C22.8711 22.8293 22.8562 22.8926 22.8562 22.9299C22.8562 22.971 22.8412 23.012 22.8264 23.0232C22.8114 23.0343 22.7742 23.1276 22.7443 23.2284C22.7182 23.3328 22.6809 23.4186 22.6621 23.4186C22.6473 23.4186 22.6324 23.4447 22.6324 23.4746C22.6324 23.5044 22.6174 23.5641 22.5951 23.6051C22.5763 23.6462 22.5429 23.7134 22.5204 23.7543C22.5018 23.7954 22.4832 23.8551 22.4832 23.885C22.4832 23.9148 22.4682 23.9409 22.4458 23.9409C22.4272 23.9409 22.4085 23.9744 22.4085 24.0155C22.4085 24.0566 22.3936 24.09 22.3713 24.09C22.3525 24.09 22.3339 24.1236 22.3339 24.1647C22.3339 24.2057 22.3191 24.2393 22.2966 24.2393C22.278 24.2393 22.2594 24.2616 22.2594 24.2877C22.2594 24.3549 22.1698 24.5378 22.14 24.5378C22.1212 24.5378 22.1101 24.5714 22.1101 24.6123C22.1101 24.6534 22.0989 24.687 22.0803 24.687C22.0653 24.687 22.0243 24.7503 21.9907 24.8324C21.9571 24.9108 21.9049 25.0004 21.8788 25.0301C21.8527 25.0563 21.8079 25.1196 21.7855 25.1645C21.7594 25.2092 21.7147 25.2839 21.6922 25.3286C21.6661 25.3733 21.6139 25.4442 21.5803 25.4853C21.5431 25.5263 21.5133 25.5785 21.5133 25.601C21.5133 25.6233 21.4797 25.6643 21.4386 25.6941C21.3976 25.724 21.364 25.7651 21.364 25.7874C21.364 25.8098 21.3342 25.862 21.2968 25.9031C21.2596 25.9404 21.1924 26.0336 21.1402 26.1045C21.0916 26.1753 21.0246 26.2611 20.991 26.291C20.9574 26.3208 20.8903 26.4066 20.8417 26.4776C20.7336 26.6304 19.4802 27.8951 19.4353 27.8951C19.4205 27.8951 19.3347 27.9623 19.2451 28.0443C19.1593 28.1264 19.0735 28.1936 19.0549 28.1936C19.0399 28.1936 18.9765 28.2383 18.9169 28.298C18.8572 28.3539 18.7602 28.4211 18.7042 28.451C18.6483 28.4808 18.6036 28.518 18.6036 28.5368C18.6036 28.5516 18.5811 28.5666 18.555 28.5666C18.5289 28.5666 18.4729 28.5965 18.432 28.6299C18.361 28.6934 18.3163 28.7195 18.1111 28.8389C18.0625 28.8612 18.0178 28.8911 18.0066 28.9023C17.9694 28.9397 17.7642 29.0553 17.7007 29.0777C17.6634 29.0888 17.6335 29.1113 17.6335 29.1299C17.6335 29.1485 17.6001 29.1635 17.559 29.1635C17.518 29.1635 17.4844 29.1783 17.4844 29.2008C17.4844 29.2194 17.4508 29.238 17.4097 29.238C17.3688 29.238 17.3352 29.253 17.3352 29.2754C17.3352 29.294 17.3016 29.3127 17.2606 29.3127C17.2195 29.3127 17.1859 29.3276 17.1859 29.3499C17.1859 29.3687 17.1636 29.3873 17.1337 29.3873C17.089 29.3873 16.9696 29.4395 16.6935 29.5775C16.6563 29.5962 16.6003 29.6111 16.5705 29.6111C16.5406 29.6111 16.5145 29.6261 16.5145 29.6484C16.5145 29.667 16.4659 29.6858 16.4026 29.6858C16.3429 29.6858 16.2906 29.7006 16.2906 29.7155C16.2906 29.7305 16.2123 29.7641 16.1154 29.7902C16.0146 29.82 15.9064 29.8574 15.8728 29.876C15.8355 29.8946 15.7647 29.9096 15.7162 29.9096C15.6639 29.9096 15.6117 29.9244 15.6006 29.9468C15.5893 29.9655 15.5221 29.9841 15.4513 29.9841C15.3804 29.9841 15.3171 29.9991 15.3058 30.0177C15.2946 30.0363 15.2313 30.0624 15.1641 30.0737C15.0969 30.0885 14.9589 30.1148 14.8545 30.1371C14.2799 30.2528 14.0039 30.2864 13.2056 30.3423L12.8586 30.3647V27.0819L12.9444 27.0558C13.0228 27.026 13.1049 27.0072 13.5115 26.9289C13.6159 26.9103 13.7726 26.873 13.8659 26.8506C13.9591 26.8283 14.0897 26.7984 14.1568 26.7872C14.2203 26.7759 14.2762 26.7536 14.2762 26.735C14.2762 26.7162 14.3135 26.7014 14.3545 26.7014C14.4254 26.7014 14.791 26.597 15.0037 26.5149C15.0447 26.4962 15.138 26.4663 15.2088 26.4402C15.2797 26.4141 15.3766 26.3805 15.4252 26.3619C15.4699 26.3433 15.5446 26.3135 15.5931 26.2947C15.7311 26.2425 15.8952 26.1717 15.9624 26.1381C15.9997 26.1194 16.0557 26.1045 16.0855 26.1045C16.1154 26.1045 16.1415 26.0859 16.1415 26.0672C16.1415 26.0448 16.1751 26.0298 16.216 26.0298C16.2571 26.0298 16.2906 26.0112 16.2906 25.9926C16.2906 25.9703 16.3242 25.9553 16.3653 25.9553C16.4062 25.9553 16.4398 25.9367 16.4398 25.9179C16.4398 25.8956 16.4734 25.8807 16.5108 25.8807C16.5517 25.8807 16.5891 25.8695 16.5966 25.8509C16.6077 25.8285 16.8018 25.7165 17.0256 25.6046C17.074 25.5822 17.1114 25.5524 17.1114 25.5338C17.1114 25.5188 17.145 25.5077 17.1859 25.5077C17.227 25.5077 17.2606 25.4927 17.2606 25.4778C17.2606 25.4591 17.3053 25.4219 17.365 25.392C17.421 25.3622 17.4993 25.31 17.5366 25.2726C17.5776 25.239 17.6335 25.2092 17.6598 25.2092C17.6859 25.2092 17.7082 25.1906 17.7082 25.172C17.7082 25.1495 17.7306 25.1346 17.7567 25.1346C17.7828 25.1346 17.8387 25.1048 17.8798 25.0674C17.9172 25.0301 18.0103 24.9593 18.0813 24.9108C18.1521 24.8622 18.2341 24.7989 18.2604 24.7727C18.2902 24.7466 18.3723 24.6758 18.4468 24.6198C18.6297 24.4856 19.7226 23.385 19.7226 23.3366C19.7226 23.3178 19.7749 23.2508 19.8345 23.1948C19.8979 23.1389 19.9465 23.0754 19.9465 23.0568C19.9465 23.0418 19.9987 22.9673 20.0584 22.8963C20.1181 22.8255 20.1703 22.7435 20.1703 22.7172C20.1703 22.6949 20.1852 22.6725 20.2002 22.6725C20.2188 22.6725 20.2561 22.6278 20.286 22.5681C20.3158 22.5122 20.3457 22.4598 20.3568 22.4487C20.3941 22.4114 20.5098 22.2062 20.5321 22.1391C20.5434 22.1055 20.5657 22.0757 20.5843 22.0757C20.6031 22.0757 20.6179 22.0421 20.6179 22.0011C20.6179 21.96 20.6365 21.9264 20.6553 21.9264C20.6776 21.9264 20.6925 21.8928 20.6925 21.8519C20.6925 21.8108 20.7112 21.7772 20.7298 21.7772C20.7522 21.7772 20.7672 21.7437 20.7672 21.7026C20.7672 21.6615 20.7858 21.6281 20.8045 21.6281C20.8269 21.6281 20.8417 21.5945 20.8417 21.5534C20.8417 21.5124 20.8605 21.4788 20.8791 21.4788C20.9014 21.4788 20.9164 21.4527 20.9164 21.4229C20.9164 21.393 20.9313 21.3371 20.9499 21.2997C20.9686 21.2661 21.0022 21.1841 21.0283 21.1244C21.0544 21.0609 21.088 20.9826 21.1066 20.949C21.1252 20.9118 21.1402 20.8484 21.1402 20.8073C21.1402 20.7663 21.1588 20.7327 21.1774 20.7327C21.1999 20.7327 21.2148 20.6805 21.2148 20.6208C21.2148 20.5574 21.2335 20.5089 21.2521 20.5089C21.2745 20.5089 21.2895 20.4603 21.2895 20.4008C21.2895 20.3373 21.3081 20.2776 21.3267 20.2664C21.349 20.2553 21.364 20.1843 21.364 20.1135C21.364 20.0426 21.3789 19.9866 21.3976 19.9866C21.4162 19.9866 21.4386 19.9157 21.4498 19.8263C21.4611 19.7405 21.4908 19.5762 21.5133 19.4643C21.5356 19.3524 21.573 19.1324 21.5953 18.9794C21.6513 18.6101 21.6475 16.5882 21.5953 16.2003C21.5692 16.0361 21.5431 15.816 21.5281 15.7154C21.517 15.6108 21.4908 15.5139 21.4722 15.4914C21.4536 15.4728 21.4386 15.3945 21.4386 15.3198C21.4386 15.2415 21.4237 15.167 21.4014 15.1557C21.3826 15.1445 21.364 15.0774 21.364 15.0065C21.364 14.9357 21.349 14.8685 21.3267 14.8574C21.3081 14.8461 21.2895 14.7864 21.2895 14.7267C21.2895 14.667 21.2745 14.6074 21.2521 14.5962C21.2335 14.585 21.2148 14.5253 21.2148 14.4694C21.2148 14.4134 21.1999 14.3537 21.1849 14.3351C21.1663 14.3127 21.1141 14.1709 21.0655 14.018C21.0133 13.865 20.9649 13.7307 20.9499 13.7196C20.9388 13.7084 20.9052 13.6226 20.8753 13.5218C20.8492 13.4249 20.8119 13.3465 20.797 13.3465C20.782 13.3465 20.7672 13.3129 20.7672 13.2719C20.7672 13.2309 20.7522 13.1973 20.7298 13.1973C20.7112 13.1973 20.6925 13.1749 20.6925 13.1451C20.6925 13.0817 20.5359 12.772 20.4985 12.7571C20.4799 12.7496 20.4687 12.7123 20.4687 12.6713C20.4687 12.634 20.4538 12.6004 20.4315 12.6004C20.4127 12.6004 20.3941 12.5669 20.3941 12.5258C20.3941 12.4848 20.3791 12.4512 20.3605 12.4512C20.3419 12.4512 20.3194 12.4214 20.3083 12.3841C20.2785 12.2983 20.1591 12.1005 20.1255 12.0856C20.1069 12.0782 20.0956 12.0409 20.0956 11.9998C20.0956 11.9625 20.0808 11.9289 20.0658 11.9289C20.0472 11.9289 20.0098 11.8842 19.98 11.8245C19.9501 11.7685 19.8979 11.6977 19.8643 11.6641C19.8271 11.6305 19.7973 11.5895 19.7973 11.5708C19.7973 11.5522 19.7451 11.4776 19.6854 11.4067C19.5846 11.2873 19.5399 11.1829 19.5921 11.1829C19.6033 11.1829 19.6704 11.2388 19.7376 11.3022C19.8084 11.3694 19.9315 11.4888 20.0098 11.5634C20.0919 11.6417 20.1703 11.7051 20.1852 11.7051C20.215 11.7051 20.4127 11.9103 20.6179 12.1528C20.6889 12.2386 20.8156 12.3803 20.8977 12.4661C20.9797 12.5482 21.088 12.6788 21.1402 12.7496C21.1887 12.8205 21.2409 12.8877 21.2521 12.8989C21.2632 12.9101 21.3156 12.9772 21.364 13.0481C21.4125 13.119 21.4759 13.201 21.502 13.2271C21.5281 13.2533 21.5505 13.2906 21.5505 13.3055C21.5505 13.3204 21.5916 13.3838 21.6438 13.4435C21.696 13.5032 21.7371 13.5741 21.7371 13.5965C21.7371 13.6226 21.7557 13.6449 21.7744 13.6449C21.7968 13.6449 21.8116 13.6673 21.8116 13.6934C21.8116 13.7196 21.8452 13.7792 21.8863 13.824C21.9273 13.8688 21.9609 13.9284 21.9609 13.962C21.9609 13.9919 21.9759 14.018 21.9907 14.018C22.0056 14.018 22.0617 14.1 22.1139 14.2045C22.1623 14.3052 22.2145 14.391 22.2333 14.391C22.2481 14.391 22.2594 14.4246 22.2594 14.4656C22.2594 14.5067 22.278 14.5402 22.2966 14.5402C22.3191 14.5402 22.3339 14.5738 22.3339 14.6148C22.3339 14.6559 22.3525 14.6894 22.3713 14.6894C22.3936 14.6894 22.4085 14.723 22.4085 14.7641C22.4085 14.805 22.4272 14.8386 22.4458 14.8386C22.4682 14.8386 22.4832 14.861 22.4832 14.8871C22.4832 14.9133 22.5168 15.0065 22.5577 15.0923C22.5988 15.1743 22.6324 15.2714 22.6324 15.305C22.6324 15.3348 22.6473 15.3609 22.6621 15.3609C22.6809 15.3609 22.7182 15.443 22.7443 15.5474C22.7704 15.6482 22.8076 15.734 22.8264 15.734C22.8412 15.734 22.8562 15.7824 22.8562 15.8459C22.8562 15.9056 22.8748 15.9578 22.8934 15.9578C22.9159 15.9578 22.9308 15.9989 22.9308 16.0511C22.9308 16.1033 22.9458 16.1741 22.9644 16.2114C23.0166 16.3196 23.08 16.536 23.08 16.6218C23.08 16.6628 23.0986 16.7114 23.1174 16.7225C23.1397 16.7337 23.1546 16.8009 23.1546 16.8717C23.1546 16.9427 23.1733 17.0097 23.1919 17.021C23.2143 17.0321 23.2293 17.1179 23.2293 17.2074C23.2293 17.297 23.2479 17.3828 23.2665 17.394C23.289 17.4051 23.3038 17.5134 23.3038 17.6327C23.3038 17.7521 23.3188 17.8602 23.3374 17.8827C23.427 17.9759 23.4642 19.9605 23.3859 20.5649Z" fill="white"/>
<path d="M27.8512 21.0132C27.8326 21.1362 27.8065 21.3078 27.7952 21.3936C27.7802 21.4832 27.7579 21.5541 27.7393 21.5541C27.7207 21.5541 27.7057 21.6063 27.7057 21.6735C27.7057 21.7892 27.6535 21.998 27.59 22.1211C27.5714 22.1585 27.5564 22.2293 27.5564 22.2815C27.5564 22.3337 27.5416 22.3748 27.5192 22.3748C27.5005 22.3748 27.4819 22.4232 27.4819 22.4867C27.4819 22.5464 27.4669 22.5986 27.4445 22.5986C27.4259 22.5986 27.4072 22.6472 27.4072 22.7105C27.4072 22.7702 27.3923 22.8224 27.37 22.8224C27.3512 22.8224 27.3326 22.8485 27.3326 22.8783C27.3326 22.9082 27.3178 22.9679 27.2953 23.009C27.2767 23.0499 27.2431 23.1171 27.2207 23.1582C27.2021 23.1992 27.1834 23.2589 27.1834 23.2887C27.1834 23.3186 27.1685 23.3447 27.1462 23.3447C27.1274 23.3447 27.1088 23.367 27.1088 23.3969C27.1088 23.4641 26.7358 24.2027 26.6686 24.2736C26.6387 24.3035 26.6053 24.3108 26.594 24.2922C26.579 24.2736 26.5306 24.2363 26.4859 24.2102C26.4373 24.1878 26.3627 24.143 26.318 24.1169C26.2694 24.0945 26.2247 24.0647 26.2135 24.0534C26.1763 24.0162 25.9711 23.9006 25.9076 23.8781C25.8703 23.867 25.8404 23.8446 25.8404 23.8259C25.8404 23.8073 25.8068 23.7923 25.7659 23.7923C25.7248 23.7923 25.6913 23.7774 25.6913 23.7588C25.6913 23.7401 25.6615 23.7177 25.6279 23.7065C25.5383 23.6766 25.3406 23.5574 25.3256 23.52C25.3183 23.505 25.2809 23.4939 25.2398 23.4939C25.2026 23.4939 25.169 23.4789 25.169 23.4603C25.169 23.4417 25.1392 23.4192 25.1056 23.4081C25.016 23.3783 24.8183 23.2589 24.8035 23.2215C24.796 23.2067 24.7586 23.1954 24.7177 23.1954C24.6803 23.1954 24.6467 23.1806 24.6467 23.1618C24.6467 23.1432 24.6169 23.1209 24.5833 23.1096C24.5162 23.0873 24.311 22.9716 24.2737 22.9343C24.2626 22.9232 24.2177 22.8933 24.173 22.8672C23.8186 22.6733 23.8223 22.6769 23.8783 22.5128C23.9044 22.4382 23.9342 22.3635 23.9491 22.3524C23.9641 22.3374 23.9753 22.2927 23.9753 22.2554C23.9753 22.2182 23.9902 22.1585 24.0088 22.1211C24.0647 22.013 24.1244 21.7965 24.1244 21.7107C24.1244 21.666 24.1394 21.6287 24.158 21.6287C24.1768 21.6287 24.1991 21.5727 24.2102 21.5055C24.2215 21.4422 24.2513 21.3116 24.2737 21.2184C24.296 21.1251 24.3259 20.9871 24.3371 20.9087C24.3484 20.8341 24.3707 20.7596 24.3893 20.7483C24.4079 20.7371 24.4229 20.6588 24.4229 20.5692C24.4229 20.4797 24.4378 20.3976 24.4565 20.379C24.4751 20.3567 24.5012 20.241 24.5125 20.1179C24.5236 19.9947 24.5534 19.7411 24.5759 19.5584C24.6319 19.1405 24.6319 17.4618 24.5759 17.0589C24.5534 16.8948 24.5273 16.6673 24.5125 16.5554C24.5012 16.4435 24.4751 16.3352 24.4565 16.3128C24.4378 16.2942 24.4229 16.2159 24.4229 16.1412C24.4229 16.0629 24.4079 15.9884 24.3856 15.9771C24.367 15.9659 24.3484 15.8988 24.3484 15.8279C24.3484 15.7571 24.3334 15.6899 24.311 15.6786C24.2923 15.6675 24.2737 15.6191 24.2737 15.5742C24.2737 15.4847 24.1916 15.2273 24.1505 15.1901C24.1357 15.1751 24.1244 15.1229 24.1244 15.0744C24.1244 15.0296 24.1096 14.9886 24.0872 14.9886C24.0685 14.9886 24.0499 14.9363 24.0499 14.8766C24.0499 14.8133 24.0349 14.7647 24.0125 14.7647C23.9939 14.7647 23.9753 14.7386 23.9753 14.7087C23.9753 14.6789 23.9603 14.6192 23.938 14.5782C23.9194 14.5372 23.8858 14.47 23.8634 14.429C23.8447 14.388 23.8261 14.3283 23.8261 14.2984C23.8261 14.2686 23.8111 14.2425 23.7887 14.2425C23.7701 14.2425 23.7514 14.2089 23.7514 14.1679C23.7514 14.1268 23.7365 14.0933 23.7142 14.0933C23.6954 14.0933 23.6768 14.0597 23.6768 14.0224C23.6768 13.9814 23.6656 13.9441 23.6507 13.9366C23.6321 13.9291 23.5798 13.8471 23.5313 13.7464C23.4829 13.6494 23.4269 13.571 23.4082 13.571C23.3933 13.571 23.3783 13.5375 23.3783 13.4964C23.3783 13.4554 23.3635 13.4218 23.3411 13.4218C23.3224 13.4218 23.3038 13.3994 23.3038 13.3733C23.3038 13.3472 23.2702 13.2875 23.2292 13.2427C23.1881 13.198 23.1545 13.1495 23.1545 13.1346C23.1545 13.1196 23.1023 13.045 23.0426 12.9742C22.9829 12.9033 22.9307 12.8287 22.9307 12.81C22.9307 12.7914 22.9009 12.7503 22.8635 12.7168C22.8263 12.6832 22.7591 12.6011 22.7107 12.534C22.6211 12.4071 22.0504 11.7953 21.89 11.6536C21.8414 11.6125 21.7295 11.5081 21.6475 11.426C21.5617 11.344 21.4349 11.2358 21.364 11.1835C21.293 11.1351 21.226 11.0828 21.2147 11.0716C21.2036 11.0605 21.1364 11.0082 21.0655 10.9597C20.9947 10.9112 20.9126 10.8478 20.8865 10.8217C20.8604 10.7956 20.7895 10.7471 20.7298 10.7098C20.6663 10.6762 20.6179 10.6315 20.6179 10.6165C20.6179 10.6016 20.5843 10.5867 20.5433 10.5867C20.5022 10.5867 20.4686 10.5718 20.4686 10.5568C20.4686 10.5382 20.4239 10.5009 20.368 10.471C20.3083 10.4412 20.2561 10.4114 20.2448 10.4002C20.2075 10.3629 20.0024 10.2472 19.939 10.2248C19.9016 10.2136 19.8718 10.1913 19.8718 10.1726C19.8718 10.154 19.8382 10.139 19.7972 10.139C19.7561 10.139 19.7225 10.1204 19.7225 10.1017C19.7225 10.0794 19.6891 10.0644 19.648 10.0644C19.6069 10.0644 19.5734 10.0458 19.5734 10.0271C19.5734 10.0047 19.5398 9.98982 19.4987 9.98982C19.4578 9.98982 19.4242 9.97117 19.4242 9.95251C19.4242 9.93013 19.3906 9.91521 19.3495 9.91521C19.3085 9.91521 19.2749 9.89656 19.2749 9.8779C19.2749 9.85552 19.2413 9.8406 19.2004 9.8406C19.1593 9.8406 19.1257 9.82569 19.1257 9.81076C19.1257 9.7921 19.0436 9.75481 18.9392 9.7287C18.8384 9.70258 18.7526 9.66528 18.7526 9.64662C18.7526 9.63171 18.7192 9.61678 18.6818 9.61678C18.6407 9.61678 18.596 9.59812 18.5848 9.57948C18.5737 9.5571 18.5213 9.54217 18.4691 9.54217C18.4207 9.54217 18.3796 9.52351 18.3796 9.50487C18.3796 9.48249 18.3386 9.46756 18.2902 9.46756C18.2378 9.46756 18.1856 9.44892 18.1745 9.43026C18.1633 9.40788 18.1111 9.39295 18.0626 9.39295C18.014 9.39295 17.9618 9.37431 17.9506 9.35565C17.9395 9.33327 17.8798 9.31834 17.8163 9.31834C17.7566 9.31834 17.7082 9.2997 17.7082 9.28104C17.7082 9.25866 17.6597 9.24373 17.5963 9.24373C17.5366 9.24373 17.4844 9.22509 17.4844 9.20643C17.4844 9.18405 17.4172 9.16912 17.3389 9.16912C17.2606 9.16912 17.1821 9.15421 17.171 9.13555C17.1598 9.11691 17.0852 9.09453 17.0105 9.0796C16.9322 9.06841 16.7606 9.0423 16.6264 9.01992C16.0594 8.92665 15.731 8.90053 14.7649 8.88562C14.071 8.8707 13.7316 8.87815 13.7054 8.90427C13.6532 8.9565 13.4182 8.9565 13.4182 8.908C13.4182 8.88562 13.4443 8.8707 13.4742 8.8707C13.504 8.8707 13.5301 8.85204 13.5301 8.83339C13.5301 8.81101 13.5823 8.79609 13.642 8.79609C13.7054 8.79609 13.7539 8.77744 13.7539 8.75878C13.7539 8.7364 13.8024 8.72148 13.8621 8.72148C13.9255 8.72148 13.9852 8.70283 13.9964 8.68417C14.0076 8.66179 14.0598 8.64687 14.1083 8.64687C14.1568 8.64687 14.2091 8.62822 14.2202 8.60956C14.2314 8.58718 14.3023 8.57226 14.3732 8.57226C14.4441 8.57226 14.5 8.55361 14.5 8.53495C14.5 8.51257 14.5672 8.49766 14.6455 8.49766C14.7238 8.49766 14.8022 8.48274 14.8133 8.46408C14.8246 8.44915 14.9141 8.42305 15.011 8.40813C15.1118 8.39694 15.2834 8.36709 15.3953 8.34844C15.5072 8.32606 15.7721 8.29248 15.9847 8.27383C16.1974 8.25891 16.3801 8.23279 16.3951 8.21787C16.4287 8.1843 17.9432 8.22534 18.361 8.2701C18.5476 8.29248 18.805 8.32606 18.9392 8.34844C19.0735 8.37082 19.2488 8.39694 19.3309 8.40813C19.4129 8.41932 19.495 8.44543 19.5175 8.46408C19.5361 8.48274 19.6069 8.49766 19.6703 8.49766C19.7375 8.49766 19.8047 8.51257 19.8158 8.53495C19.8271 8.55361 19.8868 8.57226 19.9465 8.57226C20.0062 8.57226 20.0657 8.58718 20.077 8.60956C20.0882 8.62822 20.1479 8.64687 20.2112 8.64687C20.2709 8.64687 20.3195 8.66179 20.3195 8.68417C20.3195 8.70283 20.3717 8.72148 20.4314 8.72148C20.4947 8.72148 20.5433 8.7364 20.5433 8.75878C20.5433 8.77744 20.5769 8.79609 20.6179 8.79609C20.659 8.79609 20.726 8.81101 20.7671 8.83339C20.8081 8.85204 20.8753 8.88562 20.9164 8.908C20.9573 8.92665 21.0245 8.94531 21.0655 8.94531C21.1066 8.94531 21.1402 8.96023 21.1402 8.98261C21.1402 9.00126 21.1663 9.01992 21.1961 9.01992C21.2297 9.01992 21.3266 9.05349 21.4087 9.09453C21.4945 9.13555 21.5878 9.16912 21.6139 9.16912C21.64 9.16912 21.6625 9.18405 21.6625 9.20643C21.6625 9.22509 21.6959 9.24373 21.737 9.24373C21.778 9.24373 21.8116 9.25866 21.8116 9.28104C21.8116 9.2997 21.8452 9.31834 21.8863 9.31834C21.9272 9.31834 21.9608 9.33327 21.9608 9.35565C21.9608 9.37431 21.9944 9.39295 22.0354 9.39295C22.0765 9.39295 22.1101 9.40788 22.1101 9.42652C22.1101 9.44518 22.1399 9.46756 22.1773 9.47875C22.2631 9.5086 22.4608 9.62797 22.4756 9.66154C22.4831 9.6802 22.513 9.69139 22.5428 9.69139C22.5727 9.69139 22.6324 9.72496 22.6771 9.766C22.7218 9.80703 22.7815 9.8406 22.8076 9.8406C22.8338 9.8406 22.8562 9.85552 22.8562 9.8779C22.8562 9.89656 22.8785 9.91521 22.9046 9.91521C22.927 9.91521 23.009 9.96744 23.08 10.0271C23.1508 10.0868 23.233 10.139 23.2591 10.139C23.2814 10.139 23.3038 10.154 23.3038 10.1689C23.3038 10.1838 23.3522 10.2286 23.4157 10.2621C23.4754 10.2994 23.5463 10.3479 23.5724 10.3741C23.5985 10.4002 23.6806 10.4636 23.7514 10.5121C23.8223 10.5606 23.923 10.6464 23.9753 10.6986C24.0275 10.7508 24.1357 10.8404 24.214 10.9C24.4043 11.0418 25.087 11.7245 25.2287 11.9147C25.2884 11.9931 25.3742 12.0975 25.4189 12.1423C25.4636 12.187 25.5458 12.2915 25.6055 12.3661C25.6615 12.4444 25.7398 12.5414 25.7771 12.5787C25.8106 12.6198 25.8404 12.672 25.8404 12.6944C25.8404 12.7168 25.874 12.7578 25.9151 12.7876C25.9561 12.8175 25.9897 12.8585 25.9897 12.8809C25.9897 12.9033 26.0195 12.9555 26.0569 12.9965C26.0905 13.0338 26.1427 13.1122 26.1725 13.1681C26.2024 13.2278 26.2396 13.2726 26.2583 13.2726C26.2732 13.2726 26.2882 13.3062 26.2882 13.3472C26.2882 13.3882 26.303 13.4218 26.318 13.4218C26.3366 13.4218 26.374 13.4666 26.4038 13.5225C26.4337 13.5822 26.4634 13.6344 26.4746 13.6456C26.4932 13.6643 26.635 13.9254 26.7134 14.0821C26.7358 14.1306 26.7656 14.1679 26.7842 14.1679C26.7992 14.1679 26.8103 14.1903 26.8103 14.2201C26.8103 14.2611 26.9186 14.5036 27.0752 14.8095C27.0938 14.8469 27.1088 14.9028 27.1088 14.9327C27.1088 14.9624 27.1274 14.9886 27.1462 14.9886C27.1685 14.9886 27.1834 15.0221 27.1834 15.0594C27.1834 15.1005 27.2021 15.1452 27.2207 15.1565C27.2431 15.1676 27.2581 15.2198 27.2581 15.2721C27.2581 15.3206 27.2767 15.3617 27.2953 15.3617C27.3178 15.3617 27.3326 15.4101 27.3326 15.4736C27.3326 15.5333 27.3512 15.5855 27.37 15.5855C27.3923 15.5855 27.4072 15.6264 27.4072 15.675C27.4072 15.7272 27.4259 15.7794 27.4445 15.7905C27.4669 15.8018 27.4819 15.854 27.4819 15.9026C27.4819 15.951 27.5005 16.0032 27.5192 16.0145C27.5416 16.0256 27.5564 16.0853 27.5564 16.145C27.5564 16.2047 27.5752 16.2644 27.5938 16.2756C27.6161 16.2867 27.6311 16.3577 27.6311 16.4285C27.6311 16.4994 27.6497 16.5554 27.6683 16.5554C27.6908 16.5554 27.7057 16.6188 27.7057 16.6971C27.7057 16.7754 27.7207 16.8537 27.7393 16.8725C27.7729 16.9097 27.7952 17.0477 27.8399 17.4134C27.8512 17.5065 27.8735 17.6148 27.8921 17.6558C27.9482 17.7864 27.9779 18.2601 27.9779 19.2225C27.9817 20.0955 27.9593 20.3976 27.8512 21.0132Z" fill="white"/>
<path d="M28.3024 9.27715C28.3024 9.36295 28.2763 9.39652 28.1905 9.43756C28.1308 9.46367 28.0786 9.49724 28.0786 9.51217C28.0786 9.53081 28.045 9.54202 28.0039 9.54202C27.963 9.54202 27.9294 9.55693 27.9294 9.57559C27.9294 9.59423 27.8995 9.61661 27.8659 9.62782C27.7764 9.65765 27.5787 9.77702 27.5638 9.81061C27.5563 9.82925 27.519 9.84044 27.478 9.84044C27.4407 9.84044 27.4071 9.85537 27.4071 9.87401C27.4071 9.89267 27.3772 9.91505 27.3436 9.92624C27.2541 9.95609 27.0564 10.0755 27.0415 10.109C27.034 10.1277 26.9967 10.1389 26.9557 10.1389C26.9184 10.1389 26.8848 10.1538 26.8848 10.1725C26.8848 10.1911 26.8549 10.2135 26.8215 10.2247C26.7543 10.2471 26.5491 10.3627 26.5117 10.4C26.4931 10.4187 26.232 10.5604 26.0754 10.6388C26.0268 10.6611 25.9896 10.691 25.9896 10.7059C25.9896 10.7246 25.956 10.7357 25.9149 10.7357C25.8739 10.7357 25.8403 10.7507 25.8403 10.7693C25.8403 10.788 25.7919 10.8215 25.7284 10.8477C25.6687 10.8738 25.6165 10.9073 25.6165 10.926C25.6165 10.9745 25.5046 10.967 25.4523 10.9111C25.4299 10.8887 25.3665 10.8066 25.318 10.7357C25.1986 10.5641 24.0684 9.43756 23.9005 9.31819C23.8296 9.26969 23.7289 9.18389 23.6767 9.13166C23.6244 9.07943 23.5237 8.99363 23.4528 8.94514C23.382 8.89292 23.2887 8.82577 23.2513 8.78846C23.2104 8.75116 23.1619 8.72132 23.1432 8.72132C23.1246 8.72132 23.0797 8.69147 23.0463 8.65417C23.0127 8.6206 22.9417 8.56837 22.8858 8.53853C22.8261 8.50868 22.7814 8.47138 22.7814 8.45273C22.7814 8.43781 22.759 8.42288 22.7329 8.42288C22.7068 8.42288 22.6507 8.39305 22.6098 8.35574C22.5724 8.32216 22.4941 8.26994 22.4382 8.24009C22.3785 8.21026 22.3338 8.17295 22.3338 8.15429C22.3338 8.13937 22.3002 8.12446 22.2628 8.12446C22.2217 8.12446 22.1845 8.11327 22.177 8.09461C22.1584 8.05357 21.9868 7.96031 21.5877 7.77007C21.3936 7.6768 21.2034 7.58354 21.1698 7.5649C21.1326 7.5425 21.0766 7.52759 21.0468 7.52759C21.0169 7.52759 20.9908 7.51267 20.9908 7.49774C20.9908 7.4791 20.9086 7.44179 20.8042 7.41568C20.7036 7.38956 20.6178 7.35226 20.6178 7.3336C20.6178 7.31869 20.5767 7.30376 20.5282 7.30376C20.476 7.30376 20.4237 7.2851 20.4126 7.26646C20.4013 7.24408 20.3491 7.22915 20.3007 7.22915C20.2521 7.22915 20.1999 7.21051 20.1888 7.19185C20.1775 7.16947 20.1178 7.15454 20.0544 7.15454C19.9947 7.15454 19.9462 7.13962 19.9462 7.12097C19.9462 7.10231 19.8903 7.07993 19.8268 7.06874C19.7598 7.05755 19.6291 7.02772 19.536 7.00532C19.4427 6.98294 19.3009 6.95311 19.2189 6.94564C19.1367 6.93445 19.036 6.91207 18.9949 6.89342C18.8496 6.83 18.4578 6.80762 17.4655 6.80389C16.8313 6.80389 16.3687 6.81881 16.2159 6.84491C15.7831 6.92699 15.604 6.9643 15.451 7.0016C15.369 7.02398 15.2533 7.0501 15.19 7.06129C15.1303 7.07621 15.0445 7.09859 15.0034 7.11724C14.9625 7.13216 14.8542 7.16573 14.761 7.19185C14.6677 7.21423 14.5633 7.25153 14.5297 7.27019C14.4924 7.28884 14.4364 7.30376 14.4066 7.30376C14.3767 7.30376 14.3506 7.31869 14.3506 7.34107C14.3506 7.35971 14.3171 7.37837 14.2798 7.37837C14.2387 7.37837 14.194 7.3933 14.1828 7.41568C14.1716 7.43432 14.1193 7.45298 14.0671 7.45298C14.0186 7.45298 13.9776 7.46789 13.9776 7.49029C13.9776 7.50893 13.9552 7.52759 13.9291 7.52759C13.8769 7.52759 13.653 7.62458 13.3994 7.75888C13.3173 7.80364 13.183 7.87078 13.1009 7.91182C13.0189 7.95286 12.948 7.99762 12.9405 8.01628C12.9331 8.03492 12.8958 8.04985 12.8547 8.04985C12.8174 8.04985 12.7838 8.06477 12.7838 8.08342C12.7838 8.10206 12.754 8.12446 12.7204 8.13565C12.6533 8.15803 12.4481 8.27366 12.4108 8.31097C12.3996 8.32216 12.3474 8.35201 12.2914 8.38186C12.2317 8.41169 12.187 8.449 12.187 8.46766C12.187 8.48257 12.1646 8.49749 12.1348 8.49749C12.1087 8.49749 12.034 8.54599 11.9706 8.60941C11.9035 8.66909 11.8363 8.72132 11.8214 8.72132C11.8028 8.72132 11.7393 8.76608 11.6759 8.82205C11.6162 8.88173 11.4931 8.98618 11.4036 9.05705C11.1649 9.24358 10.9149 9.47486 10.568 9.83671C10.4001 10.0083 10.2136 10.2023 10.1539 10.2657C10.0905 10.3291 10.001 10.441 9.94874 10.5119C9.90023 10.5828 9.82936 10.6686 9.79205 10.7022C9.75475 10.7357 9.72491 10.7768 9.72491 10.7954C9.72491 10.8141 9.68015 10.8775 9.62045 10.9409C9.5645 11.0006 9.49736 11.0976 9.46751 11.1536C9.43766 11.2132 9.40036 11.258 9.38171 11.258C9.36679 11.258 9.35186 11.2804 9.35186 11.3065C9.35186 11.3326 9.32203 11.3886 9.28846 11.4296C9.25115 11.4669 9.19892 11.5452 9.16907 11.6012C9.13924 11.6609 9.10193 11.7056 9.08327 11.7056C9.06836 11.7056 9.05344 11.7392 9.05344 11.7803C9.05344 11.8213 9.04225 11.8549 9.02732 11.8549C9.00868 11.8549 8.97883 11.8922 8.95645 11.9407C8.84453 12.1645 8.73262 12.3585 8.71024 12.3697C8.69159 12.3771 8.68039 12.4144 8.68039 12.4555C8.68039 12.4928 8.66548 12.5263 8.64308 12.5263C8.62444 12.5263 8.60579 12.5599 8.60579 12.601C8.60579 12.642 8.59087 12.6756 8.56849 12.6756C8.54983 12.6756 8.53118 12.7017 8.53118 12.7315C8.53118 12.7614 8.51626 12.8173 8.4976 12.8546C8.47895 12.8882 8.4491 12.9516 8.43419 12.9926C8.4118 13.0486 8.40061 13.0225 8.38942 12.8845C8.38196 12.7837 8.39315 12.6905 8.4118 12.6793C8.43046 12.6681 8.45657 12.5898 8.46776 12.5077C8.47895 12.4256 8.50879 12.2839 8.53118 12.1906C8.55356 12.0973 8.5834 11.9668 8.59459 11.8996C8.60579 11.8362 8.62817 11.7803 8.64682 11.7803C8.66548 11.7803 8.68039 11.728 8.68039 11.6683C8.68039 11.6049 8.69905 11.5564 8.71769 11.5564C8.74009 11.5564 8.755 11.5042 8.755 11.4445C8.755 11.3811 8.77366 11.3326 8.7923 11.3326C8.81468 11.3326 8.82961 11.299 8.82961 11.258C8.82961 11.217 8.84453 11.1498 8.86691 11.1088C8.88929 11.0678 8.92288 11.0006 8.94152 10.9596C8.9639 10.9185 8.97883 10.8514 8.97883 10.8104C8.97883 10.7693 8.99747 10.7357 9.01613 10.7357C9.03851 10.7357 9.05344 10.7022 9.05344 10.6611C9.05344 10.6201 9.07208 10.5865 9.09074 10.5865C9.11312 10.5865 9.12805 10.5641 9.12805 10.538C9.12805 10.5082 9.15416 10.4299 9.18773 10.359C9.38545 9.9449 9.51974 9.69122 9.54586 9.69122C9.56077 9.69122 9.57569 9.65765 9.57569 9.61661C9.57569 9.57559 9.59435 9.54202 9.613 9.54202C9.63538 9.54202 9.6503 9.5159 9.6503 9.48605C9.6503 9.45248 9.68387 9.3928 9.72491 9.34802C9.76594 9.30326 9.79952 9.24358 9.79952 9.21746C9.79952 9.19135 9.81817 9.16897 9.83683 9.16897C9.85921 9.16897 9.87413 9.14659 9.87413 9.12047C9.87413 9.09436 9.9077 9.03467 9.94874 8.98991C9.98977 8.94514 10.0233 8.89664 10.0233 8.88173C10.0233 8.86681 10.0756 8.7922 10.1353 8.72132C10.1949 8.65045 10.2472 8.5721 10.2472 8.55346C10.2472 8.53106 10.2807 8.49004 10.3218 8.46019C10.3628 8.43035 10.3964 8.38931 10.3964 8.36693C10.3964 8.34827 10.4747 8.24383 10.568 8.1431C10.665 8.03866 10.7843 7.89689 10.8403 7.82602C10.9709 7.65068 11.6237 7.0016 11.8028 6.87103C11.8811 6.81134 11.9855 6.72182 12.0378 6.66959C12.09 6.61736 12.1907 6.53156 12.2616 6.48307C12.3325 6.43084 12.4257 6.3637 12.463 6.32639C12.5041 6.28909 12.5563 6.25924 12.5787 6.25924C12.6011 6.25924 12.6421 6.22567 12.6719 6.18464C12.7018 6.1436 12.7428 6.11003 12.7652 6.11003C12.7876 6.11003 12.8398 6.08018 12.8808 6.04288C12.9181 6.00931 12.9965 5.95708 13.0562 5.92724C13.1121 5.89739 13.1569 5.86009 13.1569 5.84144C13.1569 5.82652 13.183 5.81159 13.2128 5.81159C13.2464 5.81159 13.3061 5.77802 13.3509 5.73698C13.3956 5.69596 13.4553 5.66237 13.4814 5.66237C13.5076 5.66237 13.5299 5.65118 13.5299 5.63254C13.5299 5.61761 13.6157 5.56538 13.7165 5.51689C13.8209 5.46467 13.903 5.40871 13.903 5.39378C13.903 5.37887 13.9366 5.36395 13.9776 5.36395C14.0186 5.36395 14.0522 5.34529 14.0522 5.32664C14.0522 5.30426 14.0746 5.28934 14.1007 5.28934C14.1268 5.28934 14.2462 5.24084 14.3693 5.17742C14.4924 5.11774 14.6229 5.06551 14.6602 5.06551C14.6938 5.06551 14.7237 5.04686 14.7237 5.0282C14.7237 5.00582 14.7573 4.9909 14.7945 4.9909C14.8356 4.9909 14.8803 4.97225 14.8915 4.95359C14.9028 4.93121 14.955 4.9163 15.0072 4.9163C15.0556 4.9163 15.0967 4.90138 15.0967 4.88645C15.0967 4.87153 15.175 4.83796 15.2758 4.81184C15.3727 4.78201 15.4809 4.7447 15.5145 4.72604C15.5518 4.7074 15.6153 4.69247 15.6525 4.69247C15.6936 4.69247 15.7383 4.67381 15.7495 4.65517C15.7608 4.63279 15.8205 4.61786 15.8838 4.61786C15.9435 4.61786 15.9921 4.60294 15.9921 4.58429C15.9921 4.56563 16.048 4.54325 16.1151 4.53206C16.1785 4.52087 16.309 4.49102 16.4023 4.46864C16.4956 4.44626 16.6299 4.41641 16.7008 4.40896C16.7716 4.39777 16.8649 4.37539 16.906 4.35673C16.9843 4.32316 17.1969 4.29332 17.652 4.25974C17.7975 4.24855 17.9281 4.22243 17.9505 4.20379C17.9989 4.15903 20.0805 4.18513 20.4685 4.23736C20.6215 4.25974 20.8341 4.28585 20.9349 4.30078C21.0393 4.31197 21.1549 4.33808 21.1959 4.35673C21.237 4.37539 21.3376 4.39777 21.4198 4.41269C21.5019 4.42388 21.6324 4.44253 21.7107 4.45372C21.7854 4.46864 21.8599 4.49102 21.8712 4.50968C21.8823 4.52833 21.9382 4.54325 21.9979 4.54325C22.0576 4.54325 22.1173 4.55818 22.1286 4.58056C22.1397 4.5992 22.2106 4.61786 22.2814 4.61786C22.3524 4.61786 22.4083 4.63279 22.4083 4.65517C22.4083 4.67381 22.4568 4.69247 22.5165 4.69247C22.5799 4.69247 22.6396 4.7074 22.6507 4.72978C22.662 4.74842 22.7142 4.76708 22.7664 4.76708C22.815 4.76708 22.8559 4.78201 22.8559 4.80439C22.8559 4.82303 22.8895 4.84169 22.9306 4.84169C22.9716 4.84169 23.0425 4.86034 23.091 4.88645C23.2701 4.97599 23.3037 4.9909 23.3782 4.9909C23.4193 4.9909 23.4528 5.00582 23.4528 5.0282C23.4528 5.04686 23.4864 5.06551 23.5275 5.06551C23.5684 5.06551 23.602 5.08043 23.602 5.10281C23.602 5.12147 23.6244 5.14012 23.6505 5.14012C23.7066 5.14012 24.3258 5.44601 24.3406 5.48332C24.3481 5.50198 24.3855 5.51317 24.4264 5.51317C24.4638 5.51317 24.4974 5.52808 24.4974 5.55047C24.4974 5.56912 24.531 5.58776 24.5719 5.58776C24.613 5.58776 24.6466 5.60269 24.6466 5.62507C24.6466 5.64373 24.669 5.66237 24.6951 5.66237C24.7212 5.66237 24.7809 5.69596 24.8256 5.73698C24.8704 5.77802 24.9301 5.81159 24.9637 5.81159C24.9934 5.81159 25.0197 5.82652 25.0197 5.84144C25.0197 5.86009 25.0644 5.89739 25.1241 5.92724C25.18 5.95708 25.2508 6.00931 25.2844 6.04288C25.318 6.08018 25.3591 6.11003 25.3777 6.11003C25.3963 6.11003 25.4598 6.15106 25.5195 6.20329C25.5792 6.25552 25.6389 6.29654 25.6537 6.29654C25.6687 6.29654 25.747 6.35624 25.8253 6.42712C25.9038 6.49799 25.9821 6.55768 25.9969 6.55768C26.0157 6.55768 26.1163 6.64721 26.2282 6.75166C26.3364 6.85984 26.4894 7.00906 26.5714 7.08367C26.8177 7.31122 27.3922 7.92674 27.4854 8.0573C27.534 8.12446 27.5824 8.18786 27.5935 8.19907C27.6048 8.21026 27.657 8.2774 27.7056 8.34827C27.7578 8.41916 27.8248 8.51242 27.8622 8.54972C27.8995 8.59075 27.9294 8.64671 27.9294 8.67283C27.9294 8.69894 27.9442 8.72132 27.9592 8.72132C27.9778 8.72132 28.0152 8.76608 28.045 8.82205C28.0749 8.88173 28.1271 8.96006 28.1644 8.99737C28.1979 9.03841 28.2277 9.09436 28.2277 9.12047C28.2277 9.14659 28.2465 9.16897 28.2651 9.16897C28.2874 9.16897 28.3024 9.21746 28.3024 9.27715Z" fill="white"/>
</g>
</svg>
